<?xml version="1.0" standalone="no"?>
<!DOCTYPE svg PUBLIC "-//W3C//DTD SVG 20010904//EN"
 "http://www.w3.org/TR/2001/REC-SVG-20010904/DTD/svg10.dtd">
<svg version="1.0" xmlns="http://www.w3.org/2000/svg"
 width="64.000000pt" height="64.000000pt" viewBox="0 0 64.000000 64.000000"
 preserveAspectRatio="xMidYMid meet">

<g transform="translate(0.000000,64.000000) scale(0.100000,-0.100000)"
fill="#000000" stroke="none">
<path d="M486 569 l-88 -71 43 -44 c24 -24 46 -41 50 -36 50 54 139 172 139
184 0 11 -30 38 -43 38 -7 0 -52 -32 -101 -71z"/>
<path d="M143 153 c-143 -4 -156 -10 -113 -53 19 -19 33 -20 249 -20 244 0
248 1 253 51 l3 24 -130 0 c-72 1 -190 -1 -262 -2z"/>
<path d="M167 34 c-4 -4 -7 -13 -7 -21 0 -10 26 -13 116 -13 105 0 115 2 112
18 -3 15 -18 17 -109 20 -58 1 -108 -1 -112 -4z"/>
</g>
</svg>
